<svg width="65" height="18" viewBox="0 0 65 18" fill="none" xmlns="http://www.w3.org/2000/svg">
<path d="M13.9194 3.42239C13.9078 3.33344 13.828 3.28543 13.7612 3.27979C13.6958 3.27414 12.3064 3.1739 12.3064 3.1739C12.3064 3.1739 11.3408 2.24206 11.2363 2.13899C11.1303 2.03592 10.9241 2.06699 10.8428 2.08958C10.8312 2.0924 10.6323 2.15311 10.3027 2.25194C9.98185 1.35116 9.41271 0.522394 8.41234 0.522394C8.38476 0.522394 8.35572 0.523806 8.32813 0.525218C8.04356 0.159542 7.69074 0 7.38584 0C5.05554 0 3.94192 2.83363 3.59202 4.27375C2.68603 4.54624 2.04283 4.74108 1.96007 4.76508C1.45481 4.91897 1.43884 4.93451 1.37205 5.3976C1.32269 5.74916 0 15.6972 0 15.6972L10.3085 17.575L15.894 16.4003C15.8926 16.4003 13.9325 3.50992 13.9194 3.42239ZM9.73358 2.42419C9.47514 2.50184 9.1804 2.59079 8.86098 2.6868C8.86098 2.6275 8.86098 2.5682 8.86098 2.50467C8.86098 1.94415 8.78113 1.49235 8.65336 1.13515C9.16879 1.19727 9.51289 1.76767 9.73358 2.42419ZM8.01452 1.24527C8.15826 1.59401 8.25118 2.09664 8.25118 2.77292C8.25118 2.80822 8.25118 2.83928 8.25118 2.87176C7.68349 3.04259 7.06788 3.22755 6.44937 3.41392C6.79637 2.11075 7.44537 1.48247 8.01452 1.24527ZM7.32196 0.608518C7.42214 0.608518 7.52378 0.642403 7.62105 0.70735C6.87332 1.04761 6.07332 1.90886 5.73503 3.62852C5.24138 3.77677 4.7579 3.9236 4.31071 4.05773C4.70708 2.7461 5.64791 0.608518 7.32196 0.608518Z" fill="#95BE47"/>
<path d="M13.7626 3.27979C13.6973 3.27414 12.3078 3.17389 12.3078 3.17389C12.3078 3.17389 11.3437 2.24206 11.2378 2.13899C11.1986 2.10087 11.1448 2.0811 11.0882 2.07263L10.3085 17.575L15.8926 16.4003C15.8926 16.4003 13.9325 3.50992 13.9194 3.42238C13.9078 3.33344 13.828 3.28543 13.7626 3.27979Z" fill="#5E8E3E"/>
<path d="M8.41232 6.28007L7.72411 8.27223C7.72411 8.27223 7.12012 7.95879 6.3811 7.95879C5.29653 7.95879 5.24281 8.62096 5.24281 8.78756C5.24281 9.69681 7.68201 10.0455 7.68201 12.1775C7.68201 13.8548 6.58872 14.9335 5.11359 14.9335C3.34372 14.9335 2.43918 13.8633 2.43918 13.8633L2.9125 12.3413C2.9125 12.3413 3.84317 13.1178 4.6272 13.1178C5.13972 13.1178 5.3488 12.7253 5.3488 12.4387C5.3488 11.2513 3.34807 11.199 3.34807 9.24925C3.34807 7.60865 4.55896 6.02029 7.00542 6.02029C7.94626 6.01746 8.41232 6.28007 8.41232 6.28007Z" fill="white"/>
<path d="M22.4044 10.0144C21.8468 9.72073 21.5608 9.47224 21.5608 9.13198C21.5608 8.69854 21.9586 8.4204 22.58 8.4204C23.3031 8.4204 23.9492 8.71407 23.9492 8.71407L24.4588 7.19771C24.4588 7.19771 23.9898 6.84192 22.612 6.84192C20.694 6.84192 19.3655 7.9093 19.3655 9.41153C19.3655 10.2629 19.9855 10.9124 20.8131 11.3769C21.4809 11.7482 21.7205 12.0122 21.7205 12.3991C21.7205 12.8014 21.3866 13.1262 20.7652 13.1262C19.8403 13.1262 18.9662 12.6617 18.9662 12.6617L18.4247 14.178C18.4247 14.178 19.2319 14.7047 20.5895 14.7047C22.5626 14.7047 23.9797 13.7601 23.9797 12.0588C23.9797 11.1453 23.2639 10.4944 22.4044 10.0144Z" fill="black"/>
<path d="M30.265 6.82641C29.2937 6.82641 28.53 7.27539 27.9419 7.95591L27.91 7.94038L28.7536 3.65393H26.5568L24.424 14.5649H26.6207L27.3525 10.8347C27.6385 9.42568 28.3862 8.5602 29.0875 8.5602C29.5811 8.5602 29.7713 8.88493 29.7713 9.34944C29.7713 9.64311 29.7394 9.9989 29.6755 10.294L28.8479 14.5649H31.0447L31.9042 10.1542C32 9.6897 32.0639 9.13342 32.0639 8.7621C32.0639 7.55494 31.412 6.82641 30.265 6.82641Z" fill="black"/>
<path d="M37.0294 6.82642C34.3869 6.82642 32.6374 9.14754 32.6374 11.7327C32.6374 13.3888 33.6871 14.7188 35.6617 14.7188C38.2563 14.7188 40.0058 12.4598 40.0058 9.81253C40.0058 8.28206 39.0824 6.82642 37.0294 6.82642ZM35.9477 13.0796C35.2 13.0796 34.882 12.4598 34.882 11.6861C34.882 10.4634 35.5339 8.46702 36.7274 8.46702C37.5071 8.46702 37.7612 9.11648 37.7612 9.75182C37.7612 11.0677 37.1093 13.0796 35.9477 13.0796Z" fill="black"/>
<path d="M45.6232 6.82642C44.1408 6.82642 43.3002 8.09569 43.3002 8.09569H43.2682L43.396 6.95066H41.4548C41.359 7.72437 41.1847 8.90046 41.0091 9.78288L39.4817 17.5976H41.6784L42.2838 14.4407H42.3318C42.3318 14.4407 42.7833 14.7188 43.621 14.7188C46.1996 14.7188 47.8867 12.1506 47.8867 9.54992C47.8838 8.11122 47.2305 6.82642 45.6232 6.82642ZM43.5223 13.1107C42.9517 13.1107 42.6149 12.8015 42.6149 12.8015L42.9808 10.8051C43.2348 9.47368 43.9521 8.59267 44.7158 8.59267C45.3837 8.59267 45.5913 9.19696 45.5913 9.76877C45.5913 11.1453 44.7477 13.1107 43.5223 13.1107Z" fill="black"/>
<path d="M51.0185 3.7627C50.3187 3.7627 49.7612 4.30486 49.7612 5.00091C49.7612 5.63484 50.175 6.06829 50.7949 6.06829H50.8269C51.5107 6.06829 52.1002 5.61931 52.1162 4.83007C52.1162 4.21167 51.6864 3.7627 51.0185 3.7627Z" fill="black"/>
<path d="M47.9477 14.5648H50.143L51.6399 6.99719H49.4272L47.9477 14.5648Z" fill="black"/>
<path d="M57.2254 6.98168H55.698L55.7779 6.62589C55.9056 5.89878 56.3514 5.24931 57.0831 5.24931C57.4737 5.24931 57.7829 5.35803 57.7829 5.35803L58.2127 3.68637C58.2127 3.68637 57.8309 3.5 57.0192 3.5C56.2396 3.5 55.4599 3.71743 54.8704 4.21159C54.1227 4.82999 53.7728 5.72794 53.5971 6.62589L53.5332 6.98168H52.5154L52.1975 8.59122H53.2167L52.0552 14.5649H54.2519L55.4134 8.59122H56.9249L57.2254 6.98168Z" fill="black"/>
<path d="M62.5089 6.99719C62.5089 6.99719 61.1354 10.3617 60.5198 12.1971H60.4879C60.4457 11.6056 59.9463 6.99719 59.9463 6.99719H57.6392L58.9605 13.9464C58.9924 14.1018 58.9764 14.1935 58.9125 14.3022C58.6585 14.7823 58.2287 15.2468 57.7191 15.587C57.3053 15.8807 56.8436 16.0671 56.4777 16.1913L57.0831 18.0014C57.5289 17.9082 58.4523 17.5524 59.232 16.8408C60.2338 15.9273 61.1572 14.5197 62.1125 12.6009L64.8015 6.9986H62.5089V6.99719Z" fill="black"/>
</svg>
