<svg width="18" height="17" viewBox="0 0 18 17" fill="none" xmlns="http://www.w3.org/2000/svg">
<path fill-rule="evenodd" clip-rule="evenodd" d="M10.8162 15.8379C10.8162 15.2158 10.3118 14.7114 9.6897 14.7114H8.3103C8.01155 14.7114 7.72502 14.8301 7.51377 15.0414C7.30252 15.2526 7.18383 15.5391 7.18383 15.8379C7.18383 16.46 7.68818 16.9644 8.3103 16.9644H9.6897C10.3118 16.9644 10.8162 16.46 10.8162 15.8379ZM2.36816 12.9332C2.55632 12.9476 2.78395 12.9558 3.01261 12.9424C3.13443 13.5602 3.43705 14.1332 3.88877 14.5849C4.48847 15.1846 5.30181 15.5215 6.14988 15.5215H6.5797C6.56075 15.6252 6.55102 15.7311 6.55102 15.8379C6.55102 15.9459 6.56075 16.0517 6.57942 16.1543H6.14988C5.13397 16.1543 4.15965 15.7507 3.4413 15.0324C2.86822 14.4593 2.49546 13.7233 2.36816 12.9332ZM2.04627 12.2598C1.54666 12.1756 1.08176 11.9381 0.71884 11.5751C0.258574 11.1149 0 10.4906 0 9.83967V8.34402C0 7.6931 0.258574 7.06883 0.71884 6.60857C1.17911 6.1483 1.80337 5.88969 2.45429 5.88969H2.61766C2.8788 2.59358 5.63653 0 9 0C12.3635 0 15.1212 2.59358 15.3823 5.88969H15.5457C16.1966 5.88969 16.8209 6.1483 17.2812 6.60857C17.7414 7.06883 18 7.6931 18 8.34402V9.83967C18 10.4906 17.7414 11.1149 17.2812 11.5751C16.8209 12.0354 16.1966 12.294 15.5457 12.294H14.8215C14.5211 12.294 14.2776 12.0505 14.2776 11.7501V6.40259C14.2776 3.48785 11.9147 1.125 9 1.125C6.08527 1.125 3.72241 3.48785 3.72241 6.40259V11.7501C3.72241 11.9622 3.60102 12.146 3.4239 12.2356C2.93636 12.4048 2.18025 12.2824 2.04627 12.2598Z" fill="white"/>
</svg>
