<svg width="18" height="17" viewBox="0 0 18 17" fill="none" xmlns="http://www.w3.org/2000/svg">
<path fill-rule="evenodd" clip-rule="evenodd" d="M17.7811 3.18501L9 7.97472L0.218879 3.18501C0.498149 2.26615 1.06462 1.461 1.83513 0.887764C2.60565 0.314524 3.53964 0.00337926 4.5 0H13.5C14.4604 0.00337926 15.3943 0.314524 16.1649 0.887764C16.9354 1.461 17.5018 2.26615 17.7811 3.18501ZM9 9.89998C9.15063 9.89998 9.29885 9.86221 9.4311 9.79011L18 5.11614V11.7C17.9986 12.893 17.524 14.0368 16.6804 14.8804C15.8368 15.724 14.693 16.1986 13.5 16.2H4.5C3.30696 16.1986 2.16318 15.724 1.31957 14.8804C0.475962 14.0368 0.0014053 12.893 0 11.7V5.11614L8.5689 9.79011C8.70115 9.86221 8.84937 9.89998 9 9.89998Z" fill="white"/>
</svg>
