<svg width="12" height="15" viewBox="0 0 12 15" fill="none" xmlns="http://www.w3.org/2000/svg">
<path d="M10.4844 3.62109C10.4844 3.53906 10.4297 3.51172 10.3477 3.51172C10.293 3.51172 9.33594 3.48438 9.33594 3.48438C9.33594 3.48438 8.76172 2.91016 8.54297 2.69141V14.5312L11.9609 13.6562C11.9609 13.6562 10.4844 3.67578 10.4844 3.62109ZM7.75 2.69141C7.69531 2.52734 7.64062 2.36328 7.55859 2.19922C7.28516 1.65234 6.84766 1.35156 6.35547 1.35156C6.30078 1.35156 6.27344 1.37891 6.24609 1.37891C6.21875 1.35156 6.19141 1.35156 6.19141 1.32422C5.97266 1.07812 5.69922 0.96875 5.34375 0.96875C4.6875 0.996094 4.03125 1.46094 3.51172 2.30859C3.12891 2.91016 2.85547 3.64844 2.77344 4.22266C2.00781 4.46875 1.48828 4.63281 1.48828 4.63281C1.10547 4.76953 1.07812 4.76953 1.05078 5.125C1.02344 5.39844 0.0117188 13.1094 0.0117188 13.1094L8.26953 14.5312V2.55469C8.24219 2.55469 8.1875 2.55469 8.16016 2.58203C8.16016 2.58203 7.99609 2.60938 7.75 2.69141ZM6.24609 3.15625C5.80859 3.29297 5.31641 3.45703 4.85156 3.59375C4.98828 3.07422 5.23438 2.55469 5.5625 2.22656C5.67188 2.08984 5.83594 1.95312 6.02734 1.87109C6.21875 2.25391 6.24609 2.80078 6.24609 3.15625ZM5.34375 1.43359C5.48047 1.43359 5.61719 1.46094 5.75391 1.51562C5.5625 1.625 5.39844 1.76172 5.23438 1.92578C4.79688 2.36328 4.49609 3.07422 4.35938 3.73047C3.97656 3.86719 3.56641 3.97656 3.21094 4.08594C3.45703 3.04688 4.33203 1.46094 5.34375 1.43359ZM4.08594 7.44922C4.11328 8.16016 5.97266 8.29688 6.08203 9.96484C6.16406 11.25 5.39844 12.1523 4.27734 12.207C2.9375 12.2891 2.22656 11.5234 2.22656 11.5234L2.5 10.3203C2.5 10.3203 3.23828 10.8672 3.8125 10.8125C4.19531 10.8125 4.35938 10.4844 4.33203 10.2656C4.27734 9.33594 2.77344 9.39062 2.66406 7.88672C2.58203 6.62891 3.42969 5.34375 5.26172 5.20703C5.97266 5.17969 6.32812 5.34375 6.32812 5.34375L5.91797 6.92969C5.91797 6.92969 5.45312 6.71094 4.87891 6.73828C4.08594 6.79297 4.05859 7.3125 4.08594 7.44922ZM6.68359 3.01953C6.68359 2.69141 6.62891 2.22656 6.49219 1.84375C6.98438 1.92578 7.23047 2.5 7.33984 2.82812C7.14844 2.88281 6.92969 2.96484 6.68359 3.01953Z" fill="#28293D"/>
</svg>
