<svg width="16" height="18" viewBox="0 0 16 18" fill="none" xmlns="http://www.w3.org/2000/svg">
<path fill-rule="evenodd" clip-rule="evenodd" d="M10.4606 7.40047C9.61781 8.24339 8.58634 8.67062 7.39515 8.67062C6.20423 8.67062 5.1729 8.24326 4.32997 7.40061C3.48705 6.55783 3.05968 5.52649 3.05968 4.33517C3.05968 3.14413 3.48705 2.11279 4.32984 1.27001C5.17262 0.427228 6.20382 0 7.39515 0C8.5862 0 9.61754 0.427228 10.4605 1.26987C11.3034 2.11293 11.7306 3.14426 11.7306 4.33517C11.7306 5.52649 11.3034 6.55769 10.4606 7.40047ZM14.8352 12.7037C14.9076 13.1077 14.9567 13.4903 14.981 13.841C15.0051 14.1838 15.0173 14.5415 15.0174 14.9042C15.0174 15.8442 14.7187 16.605 14.1296 17.1656C13.5477 17.7193 12.7783 18 11.8423 18H3.17517C2.23914 18 1.46942 17.7191 0.887692 17.1656C0.29869 16.6046 0 15.8439 0 14.9043C0 14.5433 0.0120849 14.1858 0.0359801 13.8414C0.0602873 13.4899 0.109451 13.1071 0.181823 12.7037C0.254882 12.2966 0.348952 11.912 0.461424 11.5603C0.577879 11.1965 0.736081 10.8376 0.9315 10.4936C1.1342 10.1367 1.37274 9.82594 1.64012 9.56996C1.92013 9.30204 2.26276 9.08684 2.65854 8.93015C3.05309 8.77387 3.49034 8.69463 3.95836 8.69463C4.14211 8.69463 4.31995 8.77003 4.66272 8.99346C4.87709 9.13312 5.12428 9.29242 5.39743 9.46697C5.63295 9.6172 5.95237 9.75797 6.3465 9.88527C6.73185 10.0098 7.12255 10.073 7.50831 10.073C7.89406 10.073 8.2849 10.0098 8.66983 9.88527C9.06438 9.75783 9.3838 9.61707 9.6196 9.46683C9.89535 9.29064 10.1424 9.13134 10.3536 8.9936C10.6968 8.77016 10.8745 8.69477 11.0582 8.69477C11.5261 8.69477 11.9635 8.77387 12.3582 8.93001C12.7543 9.08698 13.0968 9.30217 13.3765 9.56983C13.644 9.82567 13.8824 10.1366 14.0854 10.4936C14.2809 10.8376 14.4391 11.1966 14.5555 11.5601C14.6681 11.9118 14.7621 12.2966 14.8352 12.7037Z" fill="white"/>
</svg>
